<?xml version="1.0" encoding="UTF-8" standalone="no"?>
<!DOCTYPE svg PUBLIC "-//W3C//DTD SVG 1.1//EN"
 "http://www.w3.org/Graphics/SVG/1.1/DTD/svg11.dtd">
<!-- Generated by graphviz version 2.46.0 (20210118.1747)
 -->
<!-- Title: dependency&#45;cruiser output Pages: 1 -->
<svg width="385pt" height="466pt"
 viewBox="0.00 0.00 385.00 466.00" xmlns="http://www.w3.org/2000/svg" xmlns:xlink="http://www.w3.org/1999/xlink">
<g id="graph0" class="graph" transform="scale(1 1) rotate(0) translate(4 462)">
<title>dependency&#45;cruiser output</title>
<polygon fill="white" stroke="transparent" points="-4,4 -4,-462 381,-462 381,4 -4,4"/>
<g id="clust1" class="cluster">
<title>cluster_src</title>
<path fill="#ffffff" stroke="black" stroke-width="2" d="M20,-8C20,-8 357,-8 357,-8 363,-8 369,-14 369,-20 369,-20 369,-438 369,-438 369,-444 363,-450 357,-450 357,-450 20,-450 20,-450 14,-450 8,-444 8,-438 8,-438 8,-20 8,-20 8,-14 14,-8 20,-8"/>
<text text-anchor="middle" x="188.5" y="-438.8" font-family="Helvetica,sans-Serif" font-weight="bold" font-size="9.00">src</text>
</g>
<!-- src/diffVaultLists.d.ts -->
<g id="node1" class="node">
<title>src/diffVaultLists.d.ts</title>
<g id="a_node1"><a xlink:href="src/diffVaultLists.d.ts" xlink:title="diffVaultLists.d.ts">
<path fill="#ccffcc" stroke="black" d="M108.5,-424C108.5,-424 36.5,-424 36.5,-424 33.5,-424 30.5,-421 30.5,-418 30.5,-418 30.5,-412 30.5,-412 30.5,-409 33.5,-406 36.5,-406 36.5,-406 108.5,-406 108.5,-406 111.5,-406 114.5,-409 114.5,-412 114.5,-412 114.5,-418 114.5,-418 114.5,-421 111.5,-424 108.5,-424"/>
<text text-anchor="middle" x="72.5" y="-412.8" font-family="Helvetica,sans-Serif" font-size="9.00">diffVaultLists.d.ts</text>
</a>
</g>
</g>
<!-- src/diffVaultLists.js -->
<g id="node2" class="node">
<title>src/diffVaultLists.js</title>
<g id="a_node2"><a xlink:href="src/diffVaultLists.js" xlink:title="diffVaultLists.js">
<path fill="#ffffcc" stroke="black" d="M341,-214C341,-214 276,-214 276,-214 273,-214 270,-211 270,-208 270,-208 270,-202 270,-202 270,-199 273,-196 276,-196 276,-196 341,-196 341,-196 344,-196 347,-199 347,-202 347,-202 347,-208 347,-208 347,-211 344,-214 341,-214"/>
<text text-anchor="middle" x="308.5" y="-202.8" font-family="Helvetica,sans-Serif" font-size="9.00">diffVaultLists.js</text>
</a>
</g>
</g>
<!-- src/diffVaultLists.ts -->
<g id="node3" class="node">
<title>src/diffVaultLists.ts</title>
<g id="a_node3"><a xlink:href="src/diffVaultLists.ts" xlink:title="diffVaultLists.ts">
<path fill="#ccffcc" stroke="black" d="M105,-394C105,-394 40,-394 40,-394 37,-394 34,-391 34,-388 34,-388 34,-382 34,-382 34,-379 37,-376 40,-376 40,-376 105,-376 105,-376 108,-376 111,-379 111,-382 111,-382 111,-388 111,-388 111,-391 108,-394 105,-394"/>
<text text-anchor="middle" x="72.5" y="-382.8" font-family="Helvetica,sans-Serif" font-size="9.00">diffVaultLists.ts</text>
</a>
</g>
</g>
<!-- src/getVersionUpgrade.d.ts -->
<g id="node4" class="node">
<title>src/getVersionUpgrade.d.ts</title>
<g id="a_node4"><a xlink:href="src/getVersionUpgrade.d.ts" xlink:title="getVersionUpgrade.d.ts">
<path fill="#ccffcc" stroke="black" d="M123,-364C123,-364 22,-364 22,-364 19,-364 16,-361 16,-358 16,-358 16,-352 16,-352 16,-349 19,-346 22,-346 22,-346 123,-346 123,-346 126,-346 129,-349 129,-352 129,-352 129,-358 129,-358 129,-361 126,-364 123,-364"/>
<text text-anchor="middle" x="72.5" y="-352.8" font-family="Helvetica,sans-Serif" font-size="9.00">getVersionUpgrade.d.ts</text>
</a>
</g>
</g>
<!-- src/getVersionUpgrade.js -->
<g id="node5" class="node">
<title>src/getVersionUpgrade.js</title>
<g id="a_node5"><a xlink:href="src/getVersionUpgrade.js" xlink:title="getVersionUpgrade.js">
<path fill="#ffffcc" stroke="black" d="M355,-274C355,-274 262,-274 262,-274 259,-274 256,-271 256,-268 256,-268 256,-262 256,-262 256,-259 259,-256 262,-256 262,-256 355,-256 355,-256 358,-256 361,-259 361,-262 361,-262 361,-268 361,-268 361,-271 358,-274 355,-274"/>
<text text-anchor="middle" x="308.5" y="-262.8" font-family="Helvetica,sans-Serif" font-size="9.00">getVersionUpgrade.js</text>
</a>
</g>
</g>
<!-- src/getVersionUpgrade.ts -->
<g id="node6" class="node">
<title>src/getVersionUpgrade.ts</title>
<g id="a_node6"><a xlink:href="src/getVersionUpgrade.ts" xlink:title="getVersionUpgrade.ts">
<path fill="#ccffcc" stroke="black" d="M119,-334C119,-334 26,-334 26,-334 23,-334 20,-331 20,-328 20,-328 20,-322 20,-322 20,-319 23,-316 26,-316 26,-316 119,-316 119,-316 122,-316 125,-319 125,-322 125,-322 125,-328 125,-328 125,-331 122,-334 119,-334"/>
<text text-anchor="middle" x="72.5" y="-322.8" font-family="Helvetica,sans-Serif" font-size="9.00">getVersionUpgrade.ts</text>
</a>
</g>
</g>
<!-- src/index.d.ts -->
<g id="node7" class="node">
<title>src/index.d.ts</title>
<g id="a_node7"><a xlink:href="src/index.d.ts" xlink:title="index.d.ts">
<path fill="#ddfeff" stroke="black" d="M94.5,-244C94.5,-244 50.5,-244 50.5,-244 47.5,-244 44.5,-241 44.5,-238 44.5,-238 44.5,-232 44.5,-232 44.5,-229 47.5,-226 50.5,-226 50.5,-226 94.5,-226 94.5,-226 97.5,-226 100.5,-229 100.5,-232 100.5,-232 100.5,-238 100.5,-238 100.5,-241 97.5,-244 94.5,-244"/>
<text text-anchor="middle" x="72.5" y="-232.8" font-family="Helvetica,sans-Serif" font-size="9.00">index.d.ts</text>
</a>
</g>
</g>
<!-- src/index.d.ts&#45;&gt;src/diffVaultLists.js -->
<g id="edge1" class="edge">
<title>src/index.d.ts&#45;&gt;src/diffVaultLists.js</title>
<path fill="none" stroke="#000000" stroke-width="2" stroke-opacity="0.200000" d="M100.79,-233.76C111.02,-231.89 121.88,-227.96 129,-220 154.47,-191.5 113.01,-159.9 142,-135 176.06,-105.76 201.89,-116.98 243,-135 268.84,-146.33 288.9,-173.67 299.39,-190.64"/>
<polygon fill="#000000" fill-opacity="0.200000" stroke="#000000" stroke-width="2" stroke-opacity="0.200000" points="297.7,-191.89 302.58,-195.95 301.3,-189.73 297.7,-191.89"/>
</g>
<!-- src/index.d.ts&#45;&gt;src/getVersionUpgrade.js -->
<g id="edge2" class="edge">
<title>src/index.d.ts&#45;&gt;src/getVersionUpgrade.js</title>
<path fill="none" stroke="#000000" stroke-width="2" stroke-opacity="0.200000" d="M100.7,-233.68C110.92,-231.8 121.8,-227.88 129,-220 151.53,-195.35 116.43,-167.47 142,-146 159.19,-131.57 225.81,-131.57 243,-146 268.57,-167.47 239.6,-190.91 256,-220 263.42,-233.16 276.17,-244.35 287.14,-252.28"/>
<polygon fill="#000000" fill-opacity="0.200000" stroke="#000000" stroke-width="2" stroke-opacity="0.200000" points="286.22,-254.2 292.34,-255.9 288.62,-250.75 286.22,-254.2"/>
</g>
<!-- src/isVersionUpdate.js -->
<g id="node8" class="node">
<title>src/isVersionUpdate.js</title>
<g id="a_node8"><a xlink:href="src/isVersionUpdate.js" xlink:title="isVersionUpdate.js">
<path fill="#ffffcc" stroke="black" d="M233,-170C233,-170 152,-170 152,-170 149,-170 146,-167 146,-164 146,-164 146,-158 146,-158 146,-155 149,-152 152,-152 152,-152 233,-152 233,-152 236,-152 239,-155 239,-158 239,-158 239,-164 239,-164 239,-167 236,-170 233,-170"/>
<text text-anchor="middle" x="192.5" y="-158.8" font-family="Helvetica,sans-Serif" font-size="9.00">isVersionUpdate.js</text>
</a>
</g>
</g>
<!-- src/index.d.ts&#45;&gt;src/isVersionUpdate.js -->
<g id="edge3" class="edge">
<title>src/index.d.ts&#45;&gt;src/isVersionUpdate.js</title>
<path fill="none" stroke="#000000" stroke-width="2" stroke-opacity="0.200000" d="M100.75,-233.07C110.73,-231.08 121.43,-227.25 129,-220 142.81,-206.78 128.77,-192.8 142,-179 144.1,-176.81 146.5,-174.88 149.07,-173.18"/>
<polygon fill="#000000" fill-opacity="0.200000" stroke="#000000" stroke-width="2" stroke-opacity="0.200000" points="150.41,-174.84 154.56,-170.03 148.31,-171.2 150.41,-174.84"/>
</g>
<!-- src/minVersionBump.js -->
<g id="node9" class="node">
<title>src/minVersionBump.js</title>
<g id="a_node9"><a xlink:href="src/minVersionBump.js" xlink:title="minVersionBump.js">
<path fill="#ffffcc" stroke="black" d="M234,-244C234,-244 151,-244 151,-244 148,-244 145,-241 145,-238 145,-238 145,-232 145,-232 145,-229 148,-226 151,-226 151,-226 234,-226 234,-226 237,-226 240,-229 240,-232 240,-232 240,-238 240,-238 240,-241 237,-244 234,-244"/>
<text text-anchor="middle" x="192.5" y="-232.8" font-family="Helvetica,sans-Serif" font-size="9.00">minVersionBump.js</text>
</a>
</g>
</g>
<!-- src/index.d.ts&#45;&gt;src/minVersionBump.js -->
<g id="edge4" class="edge">
<title>src/index.d.ts&#45;&gt;src/minVersionBump.js</title>
<path fill="none" stroke="#000000" stroke-width="2" stroke-opacity="0.200000" d="M100.57,-235C111.9,-235 125.48,-235 138.64,-235"/>
<polygon fill="#000000" fill-opacity="0.200000" stroke="#000000" stroke-width="2" stroke-opacity="0.200000" points="138.65,-237.1 144.65,-235 138.65,-232.9 138.65,-237.1"/>
</g>
<!-- src/nextVersion.js -->
<g id="node10" class="node">
<title>src/nextVersion.js</title>
<g id="a_node10"><a xlink:href="src/nextVersion.js" xlink:title="nextVersion.js">
<path fill="#ffffcc" stroke="black" d="M223.5,-274C223.5,-274 161.5,-274 161.5,-274 158.5,-274 155.5,-271 155.5,-268 155.5,-268 155.5,-262 155.5,-262 155.5,-259 158.5,-256 161.5,-256 161.5,-256 223.5,-256 223.5,-256 226.5,-256 229.5,-259 229.5,-262 229.5,-262 229.5,-268 229.5,-268 229.5,-271 226.5,-274 223.5,-274"/>
<text text-anchor="middle" x="192.5" y="-262.8" font-family="Helvetica,sans-Serif" font-size="9.00">nextVersion.js</text>
</a>
</g>
</g>
<!-- src/index.d.ts&#45;&gt;src/nextVersion.js -->
<g id="edge5" class="edge">
<title>src/index.d.ts&#45;&gt;src/nextVersion.js</title>
<path fill="none" stroke="#000000" stroke-width="2" stroke-opacity="0.200000" d="M100.57,-241.88C115.24,-245.61 133.67,-250.3 150.1,-254.47"/>
<polygon fill="#000000" fill-opacity="0.200000" stroke="#000000" stroke-width="2" stroke-opacity="0.200000" points="149.71,-256.54 156.05,-255.99 150.75,-252.47 149.71,-256.54"/>
</g>
<!-- src/types.js -->
<g id="node11" class="node">
<title>src/types.js</title>
<g id="a_node11"><a xlink:href="src/types.js" xlink:title="types.js">
<path fill="#ffffcc" stroke="black" d="M213.5,-318C213.5,-318 171.5,-318 171.5,-318 168.5,-318 165.5,-315 165.5,-312 165.5,-312 165.5,-306 165.5,-306 165.5,-303 168.5,-300 171.5,-300 171.5,-300 213.5,-300 213.5,-300 216.5,-300 219.5,-303 219.5,-306 219.5,-306 219.5,-312 219.5,-312 219.5,-315 216.5,-318 213.5,-318"/>
<text text-anchor="middle" x="192.5" y="-306.8" font-family="Helvetica,sans-Serif" font-size="9.00">types.js</text>
</a>
</g>
</g>
<!-- src/index.d.ts&#45;&gt;src/types.js -->
<g id="edge6" class="edge">
<title>src/index.d.ts&#45;&gt;src/types.js</title>
<path fill="none" stroke="#000000" stroke-width="2" stroke-opacity="0.200000" d="M100.66,-237.4C110.52,-239.46 121.15,-243.21 129,-250 139.99,-259.5 132.37,-269.12 142,-280 148.12,-286.91 156.29,-292.61 164.22,-297.08"/>
<polygon fill="#000000" fill-opacity="0.200000" stroke="#000000" stroke-width="2" stroke-opacity="0.200000" points="163.37,-299.01 169.65,-299.98 165.35,-295.3 163.37,-299.01"/>
</g>
<!-- src/vaultlist.schema.json -->
<g id="node12" class="node">
<title>src/vaultlist.schema.json</title>
<g id="a_node12"><a xlink:href="src/vaultlist.schema.json" xlink:title="vaultlist.schema.json">
<path fill="#ffee44" stroke="black" d="M237,-348C237,-348 148,-348 148,-348 145,-348 142,-345 142,-342 142,-342 142,-336 142,-336 142,-333 145,-330 148,-330 148,-330 237,-330 237,-330 240,-330 243,-333 243,-336 243,-336 243,-342 243,-342 243,-345 240,-348 237,-348"/>
<text text-anchor="middle" x="192.5" y="-336.8" font-family="Helvetica,sans-Serif" font-size="9.00">vaultlist.schema.json</text>
</a>
</g>
</g>
<!-- src/index.d.ts&#45;&gt;src/vaultlist.schema.json -->
<g id="edge7" class="edge">
<title>src/index.d.ts&#45;&gt;src/vaultlist.schema.json</title>
<path fill="none" stroke="#000000" stroke-width="2" stroke-opacity="0.200000" d="M100.7,-236.32C110.92,-238.2 121.8,-242.12 129,-250 151.53,-274.65 119.85,-299.01 142,-324 142.63,-324.71 143.3,-325.39 143.99,-326.04"/>
<polygon fill="#000000" fill-opacity="0.200000" stroke="#000000" stroke-width="2" stroke-opacity="0.200000" points="142.92,-327.87 148.96,-329.88 145.49,-324.55 142.92,-327.87"/>
</g>
<!-- src/versionComparator.js -->
<g id="node13" class="node">
<title>src/versionComparator.js</title>
<g id="a_node13"><a xlink:href="src/versionComparator.js" xlink:title="versionComparator.js">
<path fill="#ffffcc" stroke="black" d="M354.5,-134C354.5,-134 262.5,-134 262.5,-134 259.5,-134 256.5,-131 256.5,-128 256.5,-128 256.5,-122 256.5,-122 256.5,-119 259.5,-116 262.5,-116 262.5,-116 354.5,-116 354.5,-116 357.5,-116 360.5,-119 360.5,-122 360.5,-122 360.5,-128 360.5,-128 360.5,-131 357.5,-134 354.5,-134"/>
<text text-anchor="middle" x="308.5" y="-122.8" font-family="Helvetica,sans-Serif" font-size="9.00">versionComparator.js</text>
</a>
</g>
</g>
<!-- src/index.d.ts&#45;&gt;src/versionComparator.js -->
<g id="edge8" class="edge">
<title>src/index.d.ts&#45;&gt;src/versionComparator.js</title>
<path fill="none" stroke="#000000" stroke-width="2" stroke-opacity="0.200000" d="M100.76,-234.04C111.11,-232.22 122.07,-228.26 129,-220 149.93,-195.04 117.97,-95.99 142,-74 175.12,-43.7 200.6,-59.26 243,-74 263.95,-81.28 283.23,-98.51 295.15,-110.93"/>
<polygon fill="#000000" fill-opacity="0.200000" stroke="#000000" stroke-width="2" stroke-opacity="0.200000" points="293.86,-112.63 299.49,-115.59 296.94,-109.77 293.86,-112.63"/>
</g>
<!-- src/isVersionUpdate.js&#45;&gt;src/versionComparator.js -->
<g id="edge25" class="edge">
<title>src/isVersionUpdate.js&#45;&gt;src/versionComparator.js</title>
<path fill="none" stroke="#000000" stroke-width="2" stroke-opacity="0.200000" d="M222.27,-151.92C237.66,-147.06 256.72,-141.03 272.92,-135.92"/>
<polygon fill="#000000" fill-opacity="0.200000" stroke="#000000" stroke-width="2" stroke-opacity="0.200000" points="273.65,-137.89 278.74,-134.08 272.39,-133.89 273.65,-137.89"/>
</g>
<!-- src/minVersionBump.js&#45;&gt;src/diffVaultLists.js -->
<g id="edge27" class="edge">
<title>src/minVersionBump.js&#45;&gt;src/diffVaultLists.js</title>
<path fill="none" stroke="#000000" stroke-width="2" stroke-opacity="0.200000" d="M227.7,-226C240.1,-222.74 254.22,-219.02 267.11,-215.63"/>
<polygon fill="#000000" fill-opacity="0.200000" stroke="#000000" stroke-width="2" stroke-opacity="0.200000" points="267.66,-217.66 272.93,-214.1 266.59,-213.59 267.66,-217.66"/>
</g>
<!-- src/minVersionBump.js&#45;&gt;src/getVersionUpgrade.js -->
<g id="edge28" class="edge">
<title>src/minVersionBump.js&#45;&gt;src/getVersionUpgrade.js</title>
<path fill="none" stroke="#000000" stroke-width="2" stroke-opacity="0.200000" d="M227.7,-244C240.1,-247.26 254.22,-250.98 267.11,-254.37"/>
<polygon fill="#000000" fill-opacity="0.200000" stroke="#000000" stroke-width="2" stroke-opacity="0.200000" points="266.59,-256.41 272.93,-255.9 267.66,-252.34 266.59,-256.41"/>
</g>
<!-- src/nextVersion.js&#45;&gt;src/getVersionUpgrade.js -->
<g id="edge31" class="edge">
<title>src/nextVersion.js&#45;&gt;src/getVersionUpgrade.js</title>
<path fill="none" stroke="#000000" stroke-width="2" stroke-opacity="0.200000" d="M229.57,-265C235.96,-265 242.76,-265 249.58,-265"/>
<polygon fill="#000000" fill-opacity="0.200000" stroke="#000000" stroke-width="2" stroke-opacity="0.200000" points="249.84,-267.1 255.84,-265 249.84,-262.9 249.84,-267.1"/>
</g>
<!-- src/index.js -->
<g id="node14" class="node">
<title>src/index.js</title>
<g id="a_node14"><a xlink:href="src/index.js" xlink:title="index.js">
<path fill="#ffffcc" stroke="black" d="M93.5,-274C93.5,-274 51.5,-274 51.5,-274 48.5,-274 45.5,-271 45.5,-268 45.5,-268 45.5,-262 45.5,-262 45.5,-259 48.5,-256 51.5,-256 51.5,-256 93.5,-256 93.5,-256 96.5,-256 99.5,-259 99.5,-262 99.5,-262 99.5,-268 99.5,-268 99.5,-271 96.5,-274 93.5,-274"/>
<text text-anchor="middle" x="72.5" y="-262.8" font-family="Helvetica,sans-Serif" font-size="9.00">index.js</text>
</a>
</g>
</g>
<!-- src/index.js&#45;&gt;src/diffVaultLists.js -->
<g id="edge9" class="edge">
<title>src/index.js&#45;&gt;src/diffVaultLists.js</title>
<path fill="none" stroke="#000000" stroke-width="2" stroke-opacity="0.200000" d="M99.68,-263.69C110.12,-261.85 121.44,-257.96 129,-250 147.8,-230.22 120.76,-207.13 142,-190 176.94,-161.82 198.4,-184.88 243,-190 251.63,-190.99 260.79,-192.7 269.4,-194.63"/>
<polygon fill="#000000" fill-opacity="0.200000" stroke="#000000" stroke-width="2" stroke-opacity="0.200000" points="268.95,-196.68 275.27,-195.98 269.9,-192.58 268.95,-196.68"/>
</g>
<!-- src/index.js&#45;&gt;src/getVersionUpgrade.js -->
<g id="edge10" class="edge">
<title>src/index.js&#45;&gt;src/getVersionUpgrade.js</title>
<path fill="none" stroke="#000000" stroke-width="2" stroke-opacity="0.200000" d="M99.63,-272.11C112.31,-275.2 127.84,-278.47 142,-280 186.63,-284.83 198.4,-285.12 243,-280 251.63,-279.01 260.79,-277.3 269.4,-275.37"/>
<polygon fill="#000000" fill-opacity="0.200000" stroke="#000000" stroke-width="2" stroke-opacity="0.200000" points="269.9,-277.42 275.27,-274.02 268.95,-273.32 269.9,-277.42"/>
</g>
<!-- src/index.js&#45;&gt;src/isVersionUpdate.js -->
<g id="edge11" class="edge">
<title>src/index.js&#45;&gt;src/isVersionUpdate.js</title>
<path fill="none" stroke="#000000" stroke-width="2" stroke-opacity="0.200000" d="M99.52,-263.86C110.07,-262.05 121.5,-258.15 129,-250 150.72,-226.4 121.3,-203.5 142,-179 143.73,-176.96 145.7,-175.15 147.85,-173.54"/>
<polygon fill="#000000" fill-opacity="0.200000" stroke="#000000" stroke-width="2" stroke-opacity="0.200000" points="149.22,-175.16 153.14,-170.15 146.96,-171.62 149.22,-175.16"/>
</g>
<!-- src/index.js&#45;&gt;src/minVersionBump.js -->
<g id="edge12" class="edge">
<title>src/index.js&#45;&gt;src/minVersionBump.js</title>
<path fill="none" stroke="#000000" stroke-width="2" stroke-opacity="0.200000" d="M99.69,-258.34C114.44,-254.59 133.21,-249.82 149.93,-245.57"/>
<polygon fill="#000000" fill-opacity="0.200000" stroke="#000000" stroke-width="2" stroke-opacity="0.200000" points="150.69,-247.54 155.99,-244.03 149.65,-243.47 150.69,-247.54"/>
</g>
<!-- src/index.js&#45;&gt;src/nextVersion.js -->
<g id="edge13" class="edge">
<title>src/index.js&#45;&gt;src/nextVersion.js</title>
<path fill="none" stroke="#000000" stroke-width="2" stroke-opacity="0.200000" d="M99.69,-265C114.07,-265 132.28,-265 148.67,-265"/>
<polygon fill="#000000" fill-opacity="0.200000" stroke="#000000" stroke-width="2" stroke-opacity="0.200000" points="149.09,-267.1 155.09,-265 149.09,-262.9 149.09,-267.1"/>
</g>
<!-- src/index.js&#45;&gt;src/types.js -->
<g id="edge14" class="edge">
<title>src/index.js&#45;&gt;src/types.js</title>
<path fill="none" stroke="#000000" stroke-width="2" stroke-opacity="0.200000" d="M99.52,-269.55C109.13,-271.86 119.9,-275.22 129,-280 135.7,-283.52 135.45,-287.2 142,-291 147.4,-294.13 153.44,-296.87 159.39,-299.21"/>
<polygon fill="#000000" fill-opacity="0.200000" stroke="#000000" stroke-width="2" stroke-opacity="0.200000" points="158.93,-301.28 165.29,-301.41 160.4,-297.34 158.93,-301.28"/>
</g>
<!-- src/index.js&#45;&gt;src/vaultlist.schema.json -->
<g id="edge15" class="edge">
<title>src/index.js&#45;&gt;src/vaultlist.schema.json</title>
<path fill="none" stroke="#000000" stroke-width="2" stroke-opacity="0.200000" d="M99.69,-266.64C110,-268.55 121.22,-272.4 129,-280 143.59,-294.25 127.63,-309.53 142,-324 142.85,-324.86 143.76,-325.67 144.7,-326.44"/>
<polygon fill="#000000" fill-opacity="0.200000" stroke="#000000" stroke-width="2" stroke-opacity="0.200000" points="143.58,-328.21 149.71,-329.89 145.96,-324.75 143.58,-328.21"/>
</g>
<!-- src/index.js&#45;&gt;src/versionComparator.js -->
<g id="edge16" class="edge">
<title>src/index.js&#45;&gt;src/versionComparator.js</title>
<path fill="none" stroke="#000000" stroke-width="2" stroke-opacity="0.200000" d="M99.75,-264.06C110.33,-262.29 121.73,-258.36 129,-250 159.56,-214.84 109.09,-178.97 142,-146 169.66,-118.29 214.25,-113.99 250.19,-116.1"/>
<polygon fill="#000000" fill-opacity="0.200000" stroke="#000000" stroke-width="2" stroke-opacity="0.200000" points="250.2,-118.21 256.33,-116.53 250.49,-114.02 250.2,-118.21"/>
</g>
<!-- src/index.ts -->
<g id="node15" class="node">
<title>src/index.ts</title>
<g id="a_node15"><a xlink:href="src/index.ts" xlink:title="index.ts">
<path fill="#ddfeff" stroke="black" d="M93.5,-304C93.5,-304 51.5,-304 51.5,-304 48.5,-304 45.5,-301 45.5,-298 45.5,-298 45.5,-292 45.5,-292 45.5,-289 48.5,-286 51.5,-286 51.5,-286 93.5,-286 93.5,-286 96.5,-286 99.5,-289 99.5,-292 99.5,-292 99.5,-298 99.5,-298 99.5,-301 96.5,-304 93.5,-304"/>
<text text-anchor="middle" x="72.5" y="-292.8" font-family="Helvetica,sans-Serif" font-size="9.00">index.ts</text>
</a>
</g>
</g>
<!-- src/index.ts&#45;&gt;src/diffVaultLists.js -->
<g id="edge17" class="edge">
<title>src/index.ts&#45;&gt;src/diffVaultLists.js</title>
<path fill="none" stroke="#000000" stroke-width="2" stroke-opacity="0.200000" d="M99.61,-296.38C110.04,-298.24 121.36,-302.11 129,-310 146.48,-328.04 122.3,-349.41 142,-365 159.6,-378.93 226.26,-379.95 243,-365 262.18,-347.87 244.06,-272.78 256,-250 262.91,-236.8 275.42,-225.73 286.38,-217.88"/>
<polygon fill="#000000" fill-opacity="0.200000" stroke="#000000" stroke-width="2" stroke-opacity="0.200000" points="287.85,-219.41 291.6,-214.28 285.47,-215.95 287.85,-219.41"/>
</g>
<!-- src/index.ts&#45;&gt;src/getVersionUpgrade.js -->
<g id="edge18" class="edge">
<title>src/index.ts&#45;&gt;src/getVersionUpgrade.js</title>
<path fill="none" stroke="#000000" stroke-width="2" stroke-opacity="0.200000" d="M99.74,-295.95C110.32,-297.72 121.72,-301.65 129,-310 159.02,-344.45 107.7,-381.8 142,-412 175.69,-441.67 205.42,-436.55 243,-412 288.96,-381.98 302.38,-311.12 306.12,-280.05"/>
<polygon fill="#000000" fill-opacity="0.200000" stroke="#000000" stroke-width="2" stroke-opacity="0.200000" points="308.22,-280.24 306.79,-274.05 304.04,-279.78 308.22,-280.24"/>
</g>
<!-- src/index.ts&#45;&gt;src/isVersionUpdate.js -->
<g id="edge19" class="edge">
<title>src/index.ts&#45;&gt;src/isVersionUpdate.js</title>
<path fill="none" stroke="#000000" stroke-width="2" stroke-opacity="0.200000" d="M99.67,-293.99C110.24,-292.21 121.65,-288.29 129,-280 155.81,-249.75 119.44,-223.53 142,-190 146.74,-182.95 153.81,-177.38 161.14,-173.09"/>
<polygon fill="#000000" fill-opacity="0.200000" stroke="#000000" stroke-width="2" stroke-opacity="0.200000" points="162.48,-174.75 166.76,-170.05 160.48,-171.06 162.48,-174.75"/>
</g>
<!-- src/index.ts&#45;&gt;src/minVersionBump.js -->
<g id="edge20" class="edge">
<title>src/index.ts&#45;&gt;src/minVersionBump.js</title>
<path fill="none" stroke="#000000" stroke-width="2" stroke-opacity="0.200000" d="M99.52,-292.83C109.69,-290.82 120.85,-287.05 129,-280 139.99,-270.5 131.15,-259.67 142,-250 143.03,-249.08 144.12,-248.21 145.26,-247.4"/>
<polygon fill="#000000" fill-opacity="0.200000" stroke="#000000" stroke-width="2" stroke-opacity="0.200000" points="146.49,-249.11 150.49,-244.17 144.28,-245.54 146.49,-249.11"/>
</g>
<!-- src/index.ts&#45;&gt;src/nextVersion.js -->
<g id="edge21" class="edge">
<title>src/index.ts&#45;&gt;src/nextVersion.js</title>
<path fill="none" stroke="#000000" stroke-width="2" stroke-opacity="0.200000" d="M99.69,-288.34C114.44,-284.59 133.21,-279.82 149.93,-275.57"/>
<polygon fill="#000000" fill-opacity="0.200000" stroke="#000000" stroke-width="2" stroke-opacity="0.200000" points="150.69,-277.54 155.99,-274.03 149.65,-273.47 150.69,-277.54"/>
</g>
<!-- src/index.ts&#45;&gt;src/types.js -->
<g id="edge22" class="edge">
<title>src/index.ts&#45;&gt;src/types.js</title>
<path fill="none" stroke="#000000" stroke-width="2" stroke-opacity="0.200000" d="M99.69,-298.11C117.26,-300.19 140.52,-302.95 159.23,-305.17"/>
<polygon fill="#000000" fill-opacity="0.200000" stroke="#000000" stroke-width="2" stroke-opacity="0.200000" points="159.18,-307.28 165.39,-305.9 159.67,-303.11 159.18,-307.28"/>
</g>
<!-- src/index.ts&#45;&gt;src/vaultlist.schema.json -->
<g id="edge23" class="edge">
<title>src/index.ts&#45;&gt;src/vaultlist.schema.json</title>
<path fill="none" stroke="#000000" stroke-width="2" stroke-opacity="0.200000" d="M99.56,-298.91C109.29,-301.15 120.11,-304.63 129,-310 136.27,-314.39 134.8,-319.5 142,-324 143.94,-325.21 145.99,-326.33 148.1,-327.37"/>
<polygon fill="#000000" fill-opacity="0.200000" stroke="#000000" stroke-width="2" stroke-opacity="0.200000" points="147.47,-329.39 153.81,-329.91 149.18,-325.55 147.47,-329.39"/>
</g>
<!-- src/index.ts&#45;&gt;src/versionComparator.js -->
<g id="edge24" class="edge">
<title>src/index.ts&#45;&gt;src/versionComparator.js</title>
<path fill="none" stroke="#000000" stroke-width="2" stroke-opacity="0.200000" d="M99.69,-296.64C110,-298.55 121.22,-302.4 129,-310 143.59,-324.25 125.67,-341.79 142,-354 159.98,-367.44 226.51,-369.23 243,-354 269.85,-329.19 242.62,-224.02 256,-190 263.91,-169.89 280.24,-151.02 292.41,-138.85"/>
<polygon fill="#000000" fill-opacity="0.200000" stroke="#000000" stroke-width="2" stroke-opacity="0.200000" points="294.17,-140.06 297,-134.37 291.24,-137.05 294.17,-140.06"/>
</g>
<!-- src/isVersionUpdate.d.ts -->
<g id="node16" class="node">
<title>src/isVersionUpdate.d.ts</title>
<g id="a_node16"><a xlink:href="src/isVersionUpdate.d.ts" xlink:title="isVersionUpdate.d.ts">
<path fill="#ccffcc" stroke="black" d="M117,-214C117,-214 28,-214 28,-214 25,-214 22,-211 22,-208 22,-208 22,-202 22,-202 22,-199 25,-196 28,-196 28,-196 117,-196 117,-196 120,-196 123,-199 123,-202 123,-202 123,-208 123,-208 123,-211 120,-214 117,-214"/>
<text text-anchor="middle" x="72.5" y="-202.8" font-family="Helvetica,sans-Serif" font-size="9.00">isVersionUpdate.d.ts</text>
</a>
</g>
</g>
<!-- src/isVersionUpdate.ts -->
<g id="node17" class="node">
<title>src/isVersionUpdate.ts</title>
<g id="a_node17"><a xlink:href="src/isVersionUpdate.ts" xlink:title="isVersionUpdate.ts">
<path fill="#ddfeff" stroke="black" d="M233,-98C233,-98 152,-98 152,-98 149,-98 146,-95 146,-92 146,-92 146,-86 146,-86 146,-83 149,-80 152,-80 152,-80 233,-80 233,-80 236,-80 239,-83 239,-86 239,-86 239,-92 239,-92 239,-95 236,-98 233,-98"/>
<text text-anchor="middle" x="192.5" y="-86.8" font-family="Helvetica,sans-Serif" font-size="9.00">isVersionUpdate.ts</text>
</a>
</g>
</g>
<!-- src/isVersionUpdate.ts&#45;&gt;src/versionComparator.js -->
<g id="edge26" class="edge">
<title>src/isVersionUpdate.ts&#45;&gt;src/versionComparator.js</title>
<path fill="none" stroke="#000000" stroke-width="2" stroke-opacity="0.200000" d="M222.27,-98.08C237.66,-102.94 256.72,-108.97 272.92,-114.08"/>
<polygon fill="#000000" fill-opacity="0.200000" stroke="#000000" stroke-width="2" stroke-opacity="0.200000" points="272.39,-116.11 278.74,-115.92 273.65,-112.11 272.39,-116.11"/>
</g>
<!-- src/minVersionBump.d.ts -->
<g id="node18" class="node">
<title>src/minVersionBump.d.ts</title>
<g id="a_node18"><a xlink:href="src/minVersionBump.d.ts" xlink:title="minVersionBump.d.ts">
<path fill="#ccffcc" stroke="black" d="M118,-184C118,-184 27,-184 27,-184 24,-184 21,-181 21,-178 21,-178 21,-172 21,-172 21,-169 24,-166 27,-166 27,-166 118,-166 118,-166 121,-166 124,-169 124,-172 124,-172 124,-178 124,-178 124,-181 121,-184 118,-184"/>
<text text-anchor="middle" x="72.5" y="-172.8" font-family="Helvetica,sans-Serif" font-size="9.00">minVersionBump.d.ts</text>
</a>
</g>
</g>
<!-- src/minVersionBump.ts -->
<g id="node19" class="node">
<title>src/minVersionBump.ts</title>
<g id="a_node19"><a xlink:href="src/minVersionBump.ts" xlink:title="minVersionBump.ts">
<path fill="#ddfeff" stroke="black" d="M234,-214C234,-214 151,-214 151,-214 148,-214 145,-211 145,-208 145,-208 145,-202 145,-202 145,-199 148,-196 151,-196 151,-196 234,-196 234,-196 237,-196 240,-199 240,-202 240,-202 240,-208 240,-208 240,-211 237,-214 234,-214"/>
<text text-anchor="middle" x="192.5" y="-202.8" font-family="Helvetica,sans-Serif" font-size="9.00">minVersionBump.ts</text>
</a>
</g>
</g>
<!-- src/minVersionBump.ts&#45;&gt;src/diffVaultLists.js -->
<g id="edge29" class="edge">
<title>src/minVersionBump.ts&#45;&gt;src/diffVaultLists.js</title>
<path fill="none" stroke="#000000" stroke-width="2" stroke-opacity="0.200000" d="M240.2,-205C247.88,-205 255.83,-205 263.45,-205"/>
<polygon fill="#000000" fill-opacity="0.200000" stroke="#000000" stroke-width="2" stroke-opacity="0.200000" points="263.76,-207.1 269.76,-205 263.76,-202.9 263.76,-207.1"/>
</g>
<!-- src/minVersionBump.ts&#45;&gt;src/getVersionUpgrade.js -->
<g id="edge30" class="edge">
<title>src/minVersionBump.ts&#45;&gt;src/getVersionUpgrade.js</title>
<path fill="none" stroke="#000000" stroke-width="2" stroke-opacity="0.200000" d="M228.38,-214.05C233.39,-215.78 238.39,-217.77 243,-220 260.84,-228.66 279.2,-241.98 291.75,-251.88"/>
<polygon fill="#000000" fill-opacity="0.200000" stroke="#000000" stroke-width="2" stroke-opacity="0.200000" points="290.76,-253.78 296.75,-255.89 293.38,-250.5 290.76,-253.78"/>
</g>
<!-- src/nextVersion.d.ts -->
<g id="node20" class="node">
<title>src/nextVersion.d.ts</title>
<g id="a_node20"><a xlink:href="src/nextVersion.d.ts" xlink:title="nextVersion.d.ts">
<path fill="#ccffcc" stroke="black" d="M107,-154C107,-154 38,-154 38,-154 35,-154 32,-151 32,-148 32,-148 32,-142 32,-142 32,-139 35,-136 38,-136 38,-136 107,-136 107,-136 110,-136 113,-139 113,-142 113,-142 113,-148 113,-148 113,-151 110,-154 107,-154"/>
<text text-anchor="middle" x="72.5" y="-142.8" font-family="Helvetica,sans-Serif" font-size="9.00">nextVersion.d.ts</text>
</a>
</g>
</g>
<!-- src/nextVersion.ts -->
<g id="node21" class="node">
<title>src/nextVersion.ts</title>
<g id="a_node21"><a xlink:href="src/nextVersion.ts" xlink:title="nextVersion.ts">
<path fill="#ddfeff" stroke="black" d="M223.5,-406C223.5,-406 161.5,-406 161.5,-406 158.5,-406 155.5,-403 155.5,-400 155.5,-400 155.5,-394 155.5,-394 155.5,-391 158.5,-388 161.5,-388 161.5,-388 223.5,-388 223.5,-388 226.5,-388 229.5,-391 229.5,-394 229.5,-394 229.5,-400 229.5,-400 229.5,-403 226.5,-406 223.5,-406"/>
<text text-anchor="middle" x="192.5" y="-394.8" font-family="Helvetica,sans-Serif" font-size="9.00">nextVersion.ts</text>
</a>
</g>
</g>
<!-- src/nextVersion.ts&#45;&gt;src/getVersionUpgrade.js -->
<g id="edge32" class="edge">
<title>src/nextVersion.ts&#45;&gt;src/getVersionUpgrade.js</title>
<path fill="none" stroke="#000000" stroke-width="2" stroke-opacity="0.200000" d="M228.24,-387.97C233.54,-385.61 238.67,-382.66 243,-379 275.19,-351.76 294.59,-304.17 302.84,-280"/>
<polygon fill="#000000" fill-opacity="0.200000" stroke="#000000" stroke-width="2" stroke-opacity="0.200000" points="304.89,-280.47 304.78,-274.12 300.9,-279.15 304.89,-280.47"/>
</g>
<!-- src/types.d.ts -->
<g id="node22" class="node">
<title>src/types.d.ts</title>
<g id="a_node22"><a xlink:href="src/types.d.ts" xlink:title="types.d.ts">
<path fill="#ccffcc" stroke="black" d="M94,-124C94,-124 51,-124 51,-124 48,-124 45,-121 45,-118 45,-118 45,-112 45,-112 45,-109 48,-106 51,-106 51,-106 94,-106 94,-106 97,-106 100,-109 100,-112 100,-112 100,-118 100,-118 100,-121 97,-124 94,-124"/>
<text text-anchor="middle" x="72.5" y="-112.8" font-family="Helvetica,sans-Serif" font-size="9.00">types.d.ts</text>
</a>
</g>
</g>
<!-- src/types.ts -->
<g id="node23" class="node">
<title>src/types.ts</title>
<g id="a_node23"><a xlink:href="src/types.ts" xlink:title="types.ts">
<path fill="#ccffcc" stroke="black" d="M93.5,-94C93.5,-94 51.5,-94 51.5,-94 48.5,-94 45.5,-91 45.5,-88 45.5,-88 45.5,-82 45.5,-82 45.5,-79 48.5,-76 51.5,-76 51.5,-76 93.5,-76 93.5,-76 96.5,-76 99.5,-79 99.5,-82 99.5,-82 99.5,-88 99.5,-88 99.5,-91 96.5,-94 93.5,-94"/>
<text text-anchor="middle" x="72.5" y="-82.8" font-family="Helvetica,sans-Serif" font-size="9.00">types.ts</text>
</a>
</g>
</g>
<!-- src/versionComparator.d.ts -->
<g id="node24" class="node">
<title>src/versionComparator.d.ts</title>
<g id="a_node24"><a xlink:href="src/versionComparator.d.ts" xlink:title="versionComparator.d.ts">
<path fill="#ccffcc" stroke="black" d="M122.5,-64C122.5,-64 22.5,-64 22.5,-64 19.5,-64 16.5,-61 16.5,-58 16.5,-58 16.5,-52 16.5,-52 16.5,-49 19.5,-46 22.5,-46 22.5,-46 122.5,-46 122.5,-46 125.5,-46 128.5,-49 128.5,-52 128.5,-52 128.5,-58 128.5,-58 128.5,-61 125.5,-64 122.5,-64"/>
<text text-anchor="middle" x="72.5" y="-52.8" font-family="Helvetica,sans-Serif" font-size="9.00">versionComparator.d.ts</text>
</a>
</g>
</g>
<!-- src/versionComparator.ts -->
<g id="node25" class="node">
<title>src/versionComparator.ts</title>
<g id="a_node25"><a xlink:href="src/versionComparator.ts" xlink:title="versionComparator.ts">
<path fill="#ccffcc" stroke="black" d="M118.5,-34C118.5,-34 26.5,-34 26.5,-34 23.5,-34 20.5,-31 20.5,-28 20.5,-28 20.5,-22 20.5,-22 20.5,-19 23.5,-16 26.5,-16 26.5,-16 118.5,-16 118.5,-16 121.5,-16 124.5,-19 124.5,-22 124.5,-22 124.5,-28 124.5,-28 124.5,-31 121.5,-34 118.5,-34"/>
<text text-anchor="middle" x="72.5" y="-22.8" font-family="Helvetica,sans-Serif" font-size="9.00">versionComparator.ts</text>
</a>
</g>
</g>
</g>
</svg>
